<svg width="83" height="83" viewBox="0 0 83 83" fill="none" xmlns="http://www.w3.org/2000/svg">
<path d="M70.55 16.6C71.6507 16.6 72.7062 16.1628 73.4845 15.3845C74.2628 14.6062 74.7 13.5506 74.7 12.45C74.7 11.3494 74.2628 10.2938 73.4845 9.51551C72.7062 8.73723 71.6507 8.3 70.55 8.3C69.4494 8.3 68.3938 8.73723 67.6155 9.51551C66.8372 10.2938 66.4 11.3494 66.4 12.45C66.4 13.5506 66.8372 14.6062 67.6155 15.3845C68.3938 16.1628 69.4494 16.6 70.55 16.6ZM70.55 0C73.852 0 77.0187 1.31169 79.3535 3.64652C81.6883 5.98135 83 9.14806 83 12.45V37.35H66.4V20.75H16.6V37.35H0V12.45C0 9.14806 1.31169 5.98135 3.64652 3.64652C5.98135 1.31169 9.14806 0 12.45 0H70.55ZM66.4 67.4375C66.4 69.0145 65.5285 70.384 64.2005 71.0895L43.8655 82.253C43.16 82.751 42.3715 83 41.5 83C40.6285 83 39.7985 82.751 39.1345 82.253L18.7995 71.0895C17.4715 70.384 16.6 69.0145 16.6 67.4375V45.65C16.6 44.073 17.4715 42.7035 18.7995 41.998L39.1345 31.872C39.7985 31.374 40.6285 31.125 41.5 31.125C42.3715 31.125 43.16 31.374 43.8655 31.872L64.2005 41.998C65.5285 42.7035 66.4 44.073 66.4 45.65V67.4375ZM41.5 40.0475L29.216 45.65L41.5 52.29L53.784 45.65L41.5 40.0475ZM24.9 64.989L37.35 71.7535V59.4695L24.9 52.7465V64.989ZM58.1 64.989V52.7465L45.65 59.4695V71.7535L58.1 64.989Z" fill="#30224D"/>
</svg>
