<svg width="103" height="70" viewBox="0 0 103 70" fill="none" xmlns="http://www.w3.org/2000/svg">
<path d="M30.7455 51.8518L15.45 67.4074C13.7505 68.963 11.4845 70 9.0125 70C6.62224 70 4.32987 69.044 2.6397 67.3423C0.949529 65.6405 0 63.3325 0 60.9259V59.6296L5.15 21.363C6.2315 9.38518 16.171 0 28.325 0H74.675C86.829 0 96.7685 9.38518 97.85 21.363L103 59.6296V60.9259C103 63.3325 102.05 65.6405 100.36 67.3423C98.6701 69.044 96.3778 70 93.9875 70C91.5155 70 89.2495 68.963 87.55 67.4074L72.2545 51.8518H30.7455ZM25.75 10.3704V20.7407H15.45V25.9259H25.75V36.2963H30.9V25.9259H41.2V20.7407H30.9V10.3704H25.75ZM74.675 10.3704C73.6506 10.3704 72.6682 10.7801 71.9438 11.5094C71.2194 12.2387 70.8125 13.2279 70.8125 14.2593C70.8125 15.2907 71.2194 16.2798 71.9438 17.0091C72.6682 17.7384 73.6506 18.1481 74.675 18.1481C75.6994 18.1481 76.6818 17.7384 77.4062 17.0091C78.1306 16.2798 78.5375 15.2907 78.5375 14.2593C78.5375 13.2279 78.1306 12.2387 77.4062 11.5094C76.6818 10.7801 75.6994 10.3704 74.675 10.3704ZM65.6625 19.4444C64.6381 19.4444 63.6557 19.8542 62.9313 20.5835C62.2069 21.3128 61.8 22.3019 61.8 23.3333C61.8 24.3647 62.2069 25.3539 62.9313 26.0832C63.6557 26.8125 64.6381 27.2222 65.6625 27.2222C66.6869 27.2222 67.6693 26.8125 68.3937 26.0832C69.1181 25.3539 69.525 24.3647 69.525 23.3333C69.525 22.3019 69.1181 21.3128 68.3937 20.5835C67.6693 19.8542 66.6869 19.4444 65.6625 19.4444ZM83.6875 19.4444C82.6631 19.4444 81.6807 19.8542 80.9563 20.5835C80.2319 21.3128 79.825 22.3019 79.825 23.3333C79.825 24.3647 80.2319 25.3539 80.9563 26.0832C81.6807 26.8125 82.6631 27.2222 83.6875 27.2222C84.7119 27.2222 85.6943 26.8125 86.4187 26.0832C87.1431 25.3539 87.55 24.3647 87.55 23.3333C87.55 22.3019 87.1431 21.3128 86.4187 20.5835C85.6943 19.8542 84.7119 19.4444 83.6875 19.4444ZM74.675 28.5185C73.6506 28.5185 72.6682 28.9282 71.9438 29.6575C71.2194 30.3869 70.8125 31.376 70.8125 32.4074C70.8125 33.4388 71.2194 34.428 71.9438 35.1573C72.6682 35.8866 73.6506 36.2963 74.675 36.2963C75.6994 36.2963 76.6818 35.8866 77.4062 35.1573C78.1306 34.428 78.5375 33.4388 78.5375 32.4074C78.5375 31.376 78.1306 30.3869 77.4062 29.6575C76.6818 28.9282 75.6994 28.5185 74.675 28.5185Z" fill="#30224D"/>
</svg>
