<svg width="50" height="50" viewBox="0 0 50 50" fill="none" xmlns="http://www.w3.org/2000/svg">
<path d="M50 25C50 38.8071 38.8071 50 25 50C11.1929 50 0 38.8071 0 25C0 11.1929 11.1929 0 25 0C38.8071 0 50 11.1929 50 25Z" fill="#D9D9D9"/>
<path d="M25 24.5C29.4187 24.5 33 20.8068 33 16.25C33 11.6932 29.4187 8 25 8C20.5813 8 17 11.6932 17 16.25C17 20.8068 20.5813 24.5 25 24.5ZM22.1438 27.5938C15.9875 27.5938 11 32.7371 11 39.0857C11 40.1428 11.8313 41 12.8563 41H37.1437C38.1687 41 39 40.1428 39 39.0857C39 32.7371 34.0125 27.5938 27.8563 27.5938H22.1438Z" fill="white"/>
</svg>
