<svg width="44" height="44" viewBox="0 0 44 44" fill="none" xmlns="http://www.w3.org/2000/svg">
<path d="M22 0C19.1109 0 16.2501 0.569047 13.581 1.67465C10.9118 2.78025 8.48654 4.40076 6.44365 6.44365C2.31785 10.5695 0 16.1652 0 22C0 27.8348 2.31785 33.4305 6.44365 37.5564C8.48654 39.5992 10.9118 41.2197 13.581 42.3254C16.2501 43.431 19.1109 44 22 44C27.8348 44 33.4305 41.6822 37.5564 37.5564C41.6822 33.4305 44 27.8348 44 22C44 19.1109 43.431 16.2501 42.3254 13.581C41.2197 10.9118 39.5992 8.48654 37.5564 6.44365C35.5135 4.40076 33.0882 2.78025 30.419 1.67465C27.7499 0.569047 24.8891 0 22 0ZM22 39.6C17.3322 39.6 12.8556 37.7457 9.55492 34.4451C6.25428 31.1444 4.4 26.6678 4.4 22C4.4 17.3322 6.25428 12.8556 9.55492 9.55492C12.8556 6.25428 17.3322 4.4 22 4.4C26.6678 4.4 31.1444 6.25428 34.4451 9.55492C37.7457 12.8556 39.6 17.3322 39.6 22C39.6 26.6678 37.7457 31.1444 34.4451 34.4451C31.1444 37.7457 26.6678 39.6 22 39.6ZM22 26.4C25.85 26.4 29.238 27.984 31.218 30.382L28.094 33.506C27.104 31.9 24.75 30.8 22 30.8C19.25 30.8 16.896 31.9 15.906 33.506L12.782 30.382C14.762 27.984 18.15 26.4 22 26.4ZM17.6 16.5C17.6 18.26 16.06 19.8 14.3 19.8C12.54 19.8 11 18.26 11 16.5V13.2L17.6 16.5ZM33 16.5C33 18.26 31.46 19.8 29.7 19.8C27.94 19.8 26.4 18.26 26.4 16.5L33 13.2V16.5Z" fill="black"/>
</svg>
