<svg width="44" height="44" viewBox="0 0 44 44" fill="none" xmlns="http://www.w3.org/2000/svg">
<path d="M22 0C19.1109 0 16.2501 0.569047 13.581 1.67465C10.9118 2.78025 8.48654 4.40076 6.44365 6.44365C2.31785 10.5695 0 16.1652 0 22C0 27.8348 2.31785 33.4305 6.44365 37.5564C8.48654 39.5992 10.9118 41.2197 13.581 42.3254C16.2501 43.431 19.1109 44 22 44C27.8348 44 33.4305 41.6822 37.5564 37.5564C41.6822 33.4305 44 27.8348 44 22C44 19.1109 43.431 16.2501 42.3254 13.581C41.2197 10.9118 39.5992 8.48654 37.5564 6.44365C35.5135 4.40076 33.0882 2.78025 30.419 1.67465C27.7499 0.569047 24.8891 0 22 0ZM22 39.6C17.3322 39.6 12.8556 37.7457 9.55492 34.4451C6.25428 31.1444 4.4 26.6678 4.4 22C4.4 17.3322 6.25428 12.8556 9.55492 9.55492C12.8556 6.25428 17.3322 4.4 22 4.4C26.6678 4.4 31.1444 6.25428 34.4451 9.55492C37.7457 12.8556 39.6 17.3322 39.6 22C39.6 26.6678 37.7457 31.1444 34.4451 34.4451C31.1444 37.7457 26.6678 39.6 22 39.6ZM14.3 19.8C13.4248 19.8 12.5854 19.4523 11.9665 18.8335C11.3477 18.2146 11 17.3752 11 16.5C11 15.6248 11.3477 14.7854 11.9665 14.1665C12.5854 13.5477 13.4248 13.2 14.3 13.2C15.1752 13.2 16.0146 13.5477 16.6335 14.1665C17.2523 14.7854 17.6 15.6248 17.6 16.5C17.6 17.3752 17.2523 18.2146 16.6335 18.8335C16.0146 19.4523 15.1752 19.8 14.3 19.8ZM33 16.5C33 17.3752 32.6523 18.2146 32.0335 18.8335C31.4146 19.4523 30.5752 19.8 29.7 19.8C28.8248 19.8 27.9854 19.4523 27.3665 18.8335C26.7477 18.2146 26.4 17.3752 26.4 16.5C26.4 15.6248 26.7477 14.7854 27.3665 14.1665C27.9854 13.5477 28.8248 13.2 29.7 13.2C30.5752 13.2 31.4146 13.5477 32.0335 14.1665C32.6523 14.7854 33 15.6248 33 16.5ZM30.8 26.4V30.8H13.2V26.4H30.8Z" fill="black"/>
</svg>
