<svg width="44" height="44" viewBox="0 0 44 44" fill="none" xmlns="http://www.w3.org/2000/svg">
<path d="M39.6 22C39.6 17.3322 37.7457 12.8556 34.4451 9.55492C31.1444 6.25428 26.6678 4.4 22 4.4C17.3322 4.4 12.8556 6.25428 9.55492 9.55492C6.25428 12.8556 4.4 17.3322 4.4 22C4.4 26.6678 6.25428 31.1444 9.55492 34.4451C12.8556 37.7457 17.3322 39.6 22 39.6C26.6678 39.6 31.1444 37.7457 34.4451 34.4451C37.7457 31.1444 39.6 26.6678 39.6 22ZM44 22C44 27.8348 41.6822 33.4305 37.5564 37.5564C33.4305 41.6822 27.8348 44 22 44C19.1109 44 16.2501 43.431 13.581 42.3254C10.9118 41.2197 8.48654 39.5992 6.44365 37.5564C2.31785 33.4305 0 27.8348 0 22C0 16.1652 2.31785 10.5695 6.44365 6.44365C10.5695 2.31785 16.1652 0 22 0C24.8891 0 27.7499 0.569047 30.419 1.67465C33.0882 2.78025 35.5135 4.40076 37.5564 6.44365C39.5992 8.48654 41.2197 10.9118 42.3254 13.581C43.431 16.2501 44 19.1109 44 22ZM17.6 16.5C17.6 18.26 16.06 19.8 14.3 19.8C12.54 19.8 11 18.26 11 16.5C11 14.74 12.54 13.2 14.3 13.2C16.06 13.2 17.6 14.74 17.6 16.5ZM33 16.5C33 18.26 31.46 19.8 29.7 19.8C27.94 19.8 26.4 18.26 26.4 16.5C26.4 14.74 27.94 13.2 29.7 13.2C31.46 13.2 33 14.74 33 16.5ZM22 33.506C18.15 33.506 14.762 31.9 12.782 29.524L15.906 26.4C16.896 27.984 19.25 29.106 22 29.106C24.75 29.106 27.104 27.984 28.094 26.4L31.218 29.524C29.238 31.9 25.85 33.506 22 33.506Z" fill="black"/>
</svg>
