<svg width="44" height="44" viewBox="0 0 44 44" fill="none" xmlns="http://www.w3.org/2000/svg">
<path d="M22 34.1C27.126 34.1 31.46 30.888 33.242 26.4H10.758C12.518 30.888 16.874 34.1 22 34.1ZM14.3 19.8C15.1752 19.8 16.0146 19.4523 16.6335 18.8335C17.2523 18.2146 17.6 17.3752 17.6 16.5C17.6 15.6248 17.2523 14.7854 16.6335 14.1665C16.0146 13.5477 15.1752 13.2 14.3 13.2C13.4248 13.2 12.5854 13.5477 11.9665 14.1665C11.3477 14.7854 11 15.6248 11 16.5C11 17.3752 11.3477 18.2146 11.9665 18.8335C12.5854 19.4523 13.4248 19.8 14.3 19.8ZM29.7 19.8C30.5752 19.8 31.4146 19.4523 32.0335 18.8335C32.6523 18.2146 33 17.3752 33 16.5C33 15.6248 32.6523 14.7854 32.0335 14.1665C31.4146 13.5477 30.5752 13.2 29.7 13.2C28.8248 13.2 27.9854 13.5477 27.3665 14.1665C26.7477 14.7854 26.4 15.6248 26.4 16.5C26.4 17.3752 26.7477 18.2146 27.3665 18.8335C27.9854 19.4523 28.8248 19.8 29.7 19.8ZM22 39.6C17.3322 39.6 12.8556 37.7457 9.55492 34.4451C6.25428 31.1444 4.4 26.6678 4.4 22C4.4 17.3322 6.25428 12.8556 9.55492 9.55492C12.8556 6.25428 17.3322 4.4 22 4.4C26.6678 4.4 31.1444 6.25428 34.4451 9.55492C37.7457 12.8556 39.6 17.3322 39.6 22C39.6 26.6678 37.7457 31.1444 34.4451 34.4451C31.1444 37.7457 26.6678 39.6 22 39.6ZM22 0C9.834 0 0 9.9 0 22C0 27.8348 2.31785 33.4305 6.44365 37.5564C8.48654 39.5992 10.9118 41.2197 13.581 42.3254C16.2501 43.431 19.1109 44 22 44C27.8348 44 33.4305 41.6822 37.5564 37.5564C41.6822 33.4305 44 27.8348 44 22C44 19.1109 43.431 16.2501 42.3254 13.581C41.2197 10.9118 39.5992 8.48654 37.5564 6.44365C35.5135 4.40076 33.0882 2.78025 30.419 1.67465C27.7499 0.569047 24.8891 0 22 0Z" fill="black"/>
</svg>
