<svg width="103" height="103" viewBox="0 0 103 103" fill="none" xmlns="http://www.w3.org/2000/svg">
<path d="M92.7 51.5C92.7 62.4269 88.3593 72.9063 80.6328 80.6328C72.9063 88.3593 62.4269 92.7 51.5 92.7C40.5731 92.7 30.0937 88.3593 22.3672 80.6328C14.6407 72.9063 10.3 62.4269 10.3 51.5C10.3 40.5731 14.6407 30.0937 22.3672 22.3672C30.0937 14.6407 40.5731 10.3 51.5 10.3C55.414 10.3 59.225 10.8665 62.83 11.8965L70.9155 3.811C64.9415 1.339 58.401 0 51.5 0C44.7369 0 38.0401 1.33209 31.7918 3.9202C25.5435 6.50832 19.8662 10.3018 15.084 15.084C5.42588 24.7421 0 37.8414 0 51.5C0 65.1587 5.42588 78.2579 15.084 87.916C19.8662 92.6982 25.5435 96.4917 31.7918 99.0798C38.0401 101.668 44.7369 103 51.5 103C65.1587 103 78.2579 97.5741 87.916 87.916C97.5741 78.2579 103 65.1587 103 51.5M30.4365 41.612L23.175 48.925L46.35 72.1L97.85 20.6L90.5885 13.287L46.35 57.5255L30.4365 41.612Z" fill="#480F91"/>
</svg>
