<svg width="390" height="666" viewBox="0 0 390 666" fill="none" xmlns="http://www.w3.org/2000/svg">
<g filter="url(#filter0_f_0_1)">
<ellipse cx="75" cy="449.5" rx="155" ry="116.5" fill="#B872BA"/>
</g>
<g filter="url(#filter1_f_0_1)">
<ellipse cx="325" cy="269.5" rx="170" ry="169.5" fill="#30224D"/>
</g>
<path d="M368.597 256.346C382.843 281.021 379.736 312.689 363.045 344.004C346.358 375.311 316.126 406.19 276.29 429.189C236.454 452.189 194.596 462.931 159.14 461.729C123.675 460.526 94.6962 447.383 80.4498 422.707C66.2033 398.032 69.3108 366.364 86.0015 335.049C102.688 303.742 132.92 272.864 172.756 249.864C212.593 226.864 254.45 216.122 289.906 217.325C325.371 218.527 354.35 231.67 368.597 256.346Z" stroke="white"/>
<path d="M348.772 267.918C360.877 288.886 358.242 315.806 344.046 342.44C329.854 369.068 304.138 395.335 270.249 414.9C236.36 434.466 200.754 443.603 170.598 442.58C140.434 441.557 115.803 430.38 103.697 409.412C91.5918 388.444 94.2268 361.525 108.423 334.89C122.615 308.263 148.331 281.996 182.22 262.43C216.109 242.864 251.715 233.727 281.871 234.75C312.035 235.773 336.666 246.951 348.772 267.918Z" stroke="white"/>
<path d="M326.915 280.483C336.879 297.74 334.717 319.908 323.016 341.86C311.32 363.805 290.124 385.457 262.185 401.588C234.247 417.718 204.897 425.248 180.044 424.405C155.183 423.562 134.904 414.351 124.94 397.093C114.977 379.836 117.139 357.667 128.839 335.716C140.536 313.771 161.732 292.119 189.67 275.988C217.609 259.858 246.959 252.328 271.811 253.171C296.672 254.014 316.952 263.225 326.915 280.483Z" stroke="white"/>
<path d="M393.18 242.282C409.809 271.086 406.176 308.04 386.708 344.565C367.244 381.083 331.985 417.095 285.527 443.917C239.07 470.739 190.253 483.269 148.896 481.866C107.53 480.464 73.71 465.133 57.0803 436.329C40.4506 407.526 44.0841 370.571 63.5519 334.046C83.0157 297.529 118.276 261.517 164.733 234.695C211.19 207.872 260.007 195.343 301.364 196.745C342.73 198.148 376.55 213.479 393.18 242.282Z" stroke="white"/>
<path d="M427.228 223.536C446.766 257.377 442.49 300.782 419.634 343.665C396.781 386.541 355.386 428.818 300.849 460.304C246.312 491.791 189.002 506.502 140.444 504.855C91.8782 503.208 52.1501 485.208 32.6121 451.367C13.0741 417.527 17.3495 374.121 40.2061 331.238C63.0587 288.363 104.454 246.086 158.991 214.599C213.527 183.112 270.838 168.401 319.396 170.048C367.962 171.695 407.69 189.695 427.228 223.536Z" stroke="white"/>
<defs>
<filter id="filter0_f_0_1" x="-180" y="233" width="510" height="433" filterUnits="userSpaceOnUse" color-interpolation-filters="sRGB">
<feFlood flood-opacity="0" result="BackgroundImageFix"/>
<feBlend mode="normal" in="SourceGraphic" in2="BackgroundImageFix" result="shape"/>
<feGaussianBlur stdDeviation="50" result="effect1_foregroundBlur_0_1"/>
</filter>
<filter id="filter1_f_0_1" x="55" y="0" width="540" height="539" filterUnits="userSpaceOnUse" color-interpolation-filters="sRGB">
<feFlood flood-opacity="0" result="BackgroundImageFix"/>
<feBlend mode="normal" in="SourceGraphic" in2="BackgroundImageFix" result="shape"/>
<feGaussianBlur stdDeviation="50" result="effect1_foregroundBlur_0_1"/>
</filter>
</defs>
</svg>
