<svg width="390" height="475" viewBox="0 0 390 475" fill="none" xmlns="http://www.w3.org/2000/svg">
<path d="M368.597 156.346C382.843 181.021 379.736 212.689 363.045 244.004C346.358 275.311 316.126 306.19 276.29 329.189C236.454 352.189 194.596 362.931 159.14 361.729C123.675 360.526 94.6962 347.383 80.4498 322.707C66.2033 298.032 69.3108 266.364 86.0015 235.049C102.688 203.742 132.92 172.864 172.756 149.864C212.593 126.864 254.45 116.122 289.906 117.325C325.371 118.527 354.35 131.67 368.597 156.346Z" stroke="white"/>
<path d="M348.772 167.918C360.877 188.886 358.242 215.806 344.046 242.44C329.854 269.068 304.138 295.335 270.249 314.9C236.36 334.466 200.754 343.603 170.598 342.58C140.434 341.557 115.803 330.38 103.697 309.412C91.5918 288.444 94.2268 261.525 108.423 234.89C122.615 208.263 148.331 181.996 182.22 162.43C216.109 142.864 251.715 133.727 281.871 134.75C312.035 135.773 336.666 146.951 348.772 167.918Z" stroke="white"/>
<path d="M326.915 180.483C336.879 197.74 334.717 219.908 323.016 241.86C311.32 263.805 290.124 285.457 262.185 301.588C234.247 317.718 204.897 325.248 180.044 324.405C155.183 323.562 134.904 314.351 124.94 297.093C114.977 279.836 117.139 257.667 128.839 235.716C140.536 213.771 161.732 192.119 189.67 175.988C217.609 159.858 246.959 152.328 271.811 153.171C296.672 154.014 316.952 163.225 326.915 180.483Z" stroke="white"/>
<path d="M393.18 142.282C409.809 171.086 406.176 208.04 386.708 244.565C367.244 281.083 331.985 317.095 285.527 343.917C239.07 370.739 190.253 383.269 148.896 381.866C107.53 380.463 73.71 365.133 57.0803 336.329C40.4506 307.526 44.0841 270.571 63.5519 234.046C83.0157 197.529 118.276 161.517 164.733 134.695C211.19 107.872 260.007 95.3427 301.364 96.7452C342.73 98.1481 376.55 113.479 393.18 142.282Z" stroke="white"/>
<path d="M427.228 123.536C446.766 157.377 442.49 200.782 419.634 243.665C396.781 286.541 355.386 328.818 300.849 360.304C246.312 391.791 189.002 406.502 140.444 404.855C91.8782 403.208 52.1501 385.208 32.6121 351.367C13.0741 317.527 17.3495 274.121 40.2061 231.238C63.0587 188.363 104.454 146.086 158.991 114.599C213.527 83.1121 270.838 68.401 319.396 70.0477C367.962 71.6948 407.69 89.6951 427.228 123.536Z" stroke="white"/>
</svg>
